PathFileType	4	(X/Y/Z)	OpenSim_Sub09_EMGBaseline_Magnet.trc
DataRate	CameraRate	NumFrames	NumMarkers	Units	OrigDataRate	OrigDataStartFrame	OrigNumFrames
100	100	30	8	m	100	4564	7301
Frame#	Time	torso_imu_offset_imu	pelvis_imu_offset_imu	tibia_r_imu_offset_imu	femur_r_imu_offset_imu	tibia_l_imu_offset_imu	femur_l_imu_offset_imu	toes_r_imu_offset_imu	toes_l_imu_offset_imu
				X1	Y1	Z1	X2	Y2	Z2	X3	Y3	Z3	X4	Y4	Z4	X5	Y5	Z5	X6	Y6	Z6	X7	Y7	Z7	X8		Y8	Z8	

4564	45.63000000	-0.93212900	-0.15649400	0.05761700	-0.69726600	0.16577100	-0.60668900	-0.61206100	-0.58911100	-0.00463900	-0.70654300	-0.40283200	0.15454100	-0.23632800	0.78076200	-0.00317400	-0.81689500	0.11474600	0.17553700	-0.67456100	-0.09887700	-0.38159200	-0.80224600	0.17114300	-0.02539100
4565	45.64000000	-0.93212900	-0.15649400	0.05761700	-0.69946300	0.16381800	-0.61108400	-0.61596700	-0.59545900	-0.00219700	-0.70434600	-0.40698200	0.14794900	-0.26318400	0.78051800	-0.00073200	-0.81469700	0.11279300	0.17334000	-0.68261700	-0.10302700	-0.38769500	-0.79296900	0.16259800	-0.04785200
4566	45.65000000	-0.93408200	-0.15844700	0.06445300	-0.69287100	0.16381800	-0.61816400	-0.61377000	-0.59960900	-0.00415000	-0.70214800	-0.41088900	0.14355500	-0.28710900	0.76293900	-0.00170900	-0.82104500	0.10620100	0.17114300	-0.67431600	-0.10693400	-0.38574200	-0.79882800	0.14502000	-0.07934600
4567	45.66000000	-0.93627900	-0.16064500	0.06225600	-0.69262700	0.15747100	-0.62036100	-0.60742200	-0.59960900	0.00244100	-0.69970700	-0.41918900	0.14379900	-0.31591800	0.74975600	-0.00073200	-0.81665000	0.10180700	0.17114300	-0.67431600	-0.10913100	-0.38549800	-0.80053700	0.12988300	-0.11303700
4568	45.67000000	-0.93847700	-0.15429700	0.06420900	-0.70141600	0.16162100	-0.61108400	-0.60717800	-0.61010700	0.00073200	-0.69116200	-0.42749000	0.13720700	-0.33789100	0.73877000	0.00683600	-0.81640600	0.09521500	0.16674800	-0.67431600	-0.10693400	-0.38134800	-0.80004900	0.11450200	-0.13769500
4569	45.68000000	-0.92968800	-0.16284200	0.06884800	-0.69262700	0.15332000	-0.62011700	-0.60278300	-0.61206100	-0.00366200	-0.69091800	-0.43164100	0.14209000	-0.36889600	0.72314500	0.00805700	-0.82055700	0.08862300	0.16699200	-0.67627000	-0.11303700	-0.38964800	-0.79272500	0.09716800	-0.17578100
4570	45.69000000	-0.93188500	-0.16284200	0.07104500	-0.69262700	0.15551800	-0.61792000	-0.60693400	-0.61206100	-0.00146500	-0.69311500	-0.43164100	0.14892600	-0.40185500	0.70996100	0.01806600	-0.82251000	0.08007800	0.17138700	-0.67407200	-0.11914100	-0.38549800	-0.78295900	0.07983400	-0.20043900
4571	45.70000000	-0.93408200	-0.16064500	0.06884800	-0.69482400	0.15332000	-0.62011700	-0.60058600	-0.61621100	-0.00805700	-0.68872100	-0.43994100	0.14233400	-0.42382800	0.69018600	0.02368200	-0.82275400	0.08642600	0.17138700	-0.68042000	-0.11523400	-0.38769500	-0.77587900	0.06689500	-0.23413100
4572	45.71000000	-0.93627900	-0.16064500	0.07763700	-0.69482400	0.15551800	-0.62475600	-0.59643600	-0.61840800	-0.01245100	-0.68823200	-0.45019500	0.14038100	-0.45434600	0.66796900	0.02978500	-0.82251000	0.08007800	0.17138700	-0.67382800	-0.12329100	-0.38330100	-0.76831100	0.04296900	-0.26318400
4573	45.72000000	-0.92993200	-0.15649400	0.07519500	-0.69262700	0.15112300	-0.62231400	-0.59399400	-0.62255900	-0.01001000	-0.67993200	-0.45019500	0.13818400	-0.47851600	0.65258800	0.03515600	-0.82666000	0.07568400	0.16918900	-0.67163100	-0.12524400	-0.38330100	-0.75878900	0.03002900	-0.29003900
4574	45.73000000	-0.93432600	-0.15649400	0.07959000	-0.69873000	0.14477500	-0.62207000	-0.59179700	-0.63085900	-0.01416000	-0.67993200	-0.44799800	0.14038100	-0.50927700	0.62841800	0.03222700	-0.82226600	0.07788100	0.16918900	-0.67163100	-0.12939500	-0.38525400	-0.74926800	0.01464800	-0.30810500
4575	45.74000000	-0.92553700	-0.16284200	0.08007800	-0.69873000	0.14477500	-0.62207000	-0.58105500	-0.63916000	-0.01611300	-0.67968800	-0.45849600	0.14086900	-0.53320300	0.61059600	0.03808600	-0.82421900	0.06689500	0.16943400	-0.66528300	-0.12939500	-0.38305700	-0.73754900	-0.00048800	-0.33252000
4576	45.75000000	-0.92553700	-0.16284200	0.08667000	-0.69018600	0.14917000	-0.62451200	-0.58325200	-0.63720700	-0.01171900	-0.67358400	-0.45629900	0.14306600	-0.55493200	0.58422900	0.03051800	-0.82006800	0.07568400	0.16918900	-0.66748000	-0.13354500	-0.37890600	-0.72778300	-0.02221700	-0.35498000
4577	45.76000000	-0.92993200	-0.16064500	0.08862300	-0.69458000	0.14502000	-0.62207000	-0.57666000	-0.64550800	-0.01586900	-0.67138700	-0.45849600	0.14306600	-0.57641600	0.56005900	0.02978500	-0.82421900	0.07128900	0.17163100	-0.67138700	-0.13964800	-0.38085900	-0.71606400	-0.03295900	-0.37744100
4578	45.77000000	-0.92749000	-0.16479500	0.09106400	-0.68994100	0.13867200	-0.62890600	-0.57226600	-0.64965800	-0.01367200	-0.67114300	-0.46875000	0.14575200	-0.60498000	0.53808600	0.03125000	-0.82446300	0.07348600	0.16699200	-0.66699200	-0.14575200	-0.38501000	-0.70410200	-0.05493200	-0.39306600
4579	45.78000000	-0.93408200	-0.16284200	0.09106400	-0.69213900	0.14086900	-0.62890600	-0.57202100	-0.65576200	-0.01562500	-0.66870100	-0.47290000	0.14819300	-0.62670900	0.51391600	0.02612300	-0.82446300	0.07568400	0.16479500	-0.66699200	-0.14770500	-0.37670900	-0.69238300	-0.06787100	-0.42211900
4580	45.79000000	-0.92773400	-0.16284200	0.09545900	-0.68774400	0.13867200	-0.63354500	-0.56372100	-0.65380900	-0.01562500	-0.66674800	-0.47290000	0.14599600	-0.63940400	0.48754900	0.01416000	-0.82226600	0.07568400	0.16259800	-0.66699200	-0.14965800	-0.38281200	-0.67822300	-0.08520500	-0.43994100
4581	45.80000000	-0.92773400	-0.16064500	0.09521500	-0.68774400	0.13671900	-0.63110400	-0.55493200	-0.66406200	-0.01757800	-0.66040000	-0.47485400	0.15283200	-0.65649400	0.46337900	0.01562500	-0.82226600	0.07788100	0.15795900	-0.67089800	-0.15380900	-0.38061500	-0.66406200	-0.10473600	-0.45800800
4582	45.81000000	-0.92993200	-0.16284200	0.09765600	-0.68335000	0.13671900	-0.63110400	-0.55493200	-0.66845700	-0.02197300	-0.66235400	-0.47705100	0.15527300	-0.67382800	0.44116200	0.01464800	-0.82251000	0.08007800	0.16259800	-0.66259800	-0.15380900	-0.37646500	-0.64575200	-0.11987300	-0.47802700
4583	45.82000000	-0.93212900	-0.15844700	0.09960900	-0.68335000	0.13452100	-0.63574200	-0.55053700	-0.67260700	-0.02172900	-0.66015600	-0.48315400	0.15771500	-0.69091800	0.41479500	0.01391600	-0.82251000	0.08227500	0.16015600	-0.66674800	-0.15795900	-0.37426800	-0.62939500	-0.13745100	-0.49585000
4584	45.83000000	-0.92578100	-0.15844700	0.10400400	-0.68139600	0.13867200	-0.63354500	-0.54834000	-0.67456100	-0.01928700	-0.65380900	-0.48535200	0.17163100	-0.70800800	0.39062500	0.01538100	-0.82690400	0.08203100	0.15795900	-0.66430700	-0.16821300	-0.37841800	-0.61987300	-0.14819300	-0.51171900
4585	45.84000000	-0.93212900	-0.15844700	0.10620100	-0.68115200	0.13037100	-0.63330100	-0.54174800	-0.68090800	-0.02368200	-0.64965800	-0.48950200	0.16723600	-0.71606400	0.35986300	0.00805700	-0.82470700	0.08422900	0.15356400	-0.66650400	-0.16406200	-0.37646500	-0.60131800	-0.16552700	-0.52270500
4586	45.85000000	-0.92993200	-0.15844700	0.10400400	-0.67480500	0.13452100	-0.63574200	-0.53515600	-0.69116200	-0.03222700	-0.64746100	-0.48535200	0.17163100	-0.71997100	0.34008800	0.01562500	-0.82251000	0.08007800	0.15576200	-0.66845700	-0.17236300	-0.37402300	-0.58520500	-0.17846700	-0.53833000
4587	45.86000000	-0.92358400	-0.15844700	0.10180700	-0.67675800	0.13256800	-0.63330100	-0.52880900	-0.69335900	-0.03002900	-0.64721700	-0.49340800	0.17211900	-0.73706100	0.31811500	0.01489300	-0.82275400	0.08667000	0.15112300	-0.67260700	-0.17431600	-0.37207000	-0.56909200	-0.18945300	-0.54052700
4588	45.87000000	-0.92797900	-0.15429700	0.10376000	-0.68115200	0.12817400	-0.63305700	-0.52441400	-0.70385700	-0.03393600	-0.64526400	-0.49560500	0.17675800	-0.75219700	0.29394500	0.01611300	-0.82275400	0.09082000	0.15112300	-0.67041000	-0.17627000	-0.36987300	-0.55517600	-0.20459000	-0.55395500
4589	45.88000000	-0.92797900	-0.15429700	0.10595700	-0.68115200	0.13256800	-0.63549800	-0.51586900	-0.70800800	-0.03833000	-0.63891600	-0.49340800	0.17211900	-0.75366200	0.27197300	0.01733400	-0.82080100	0.09301800	0.15795900	-0.66601600	-0.18237300	-0.36572300	-0.53906200	-0.21777300	-0.56518600
4590	45.89000000	-0.92797900	-0.15429700	0.10595700	-0.67480500	0.13256800	-0.63330100	-0.50952100	-0.70996100	-0.03369100	-0.63671900	-0.49975600	0.17456100	-0.75537100	0.25659200	0.02026400	-0.81860400	0.09521500	0.15332000	-0.67041000	-0.17651400	-0.36792000	-0.52050800	-0.23510700	-0.56958000
4591	45.90000000	-0.92602500	-0.15014600	0.10815400	-0.67456100	0.13256800	-0.64721700	-0.50732400	-0.71411100	-0.04248000	-0.63867200	-0.49975600	0.17675800	-0.75952100	0.24121100	0.01440400	-0.82519500	0.09741200	0.16015600	-0.66821300	-0.18261700	-0.36157200	-0.51098600	-0.24609400	-0.57836900
4592	45.91000000	-0.92578100	-0.15210000	0.11035200	-0.67675800	0.12841800	-0.63549800	-0.49438500	-0.72241200	-0.04223600	-0.63452100	-0.50366200	0.17236300	-0.75903300	0.22363300	0.01513700	-0.82080100	0.09521500	0.16235400	-0.66577100	-0.19067400	-0.36767600	-0.49731400	-0.25463900	-0.58276400
4593	45.92000000	-0.92797900	-0.15014600	0.10376000	-0.68335000	0.13037100	-0.63793900	-0.48779300	-0.73071300	-0.04199200	-0.63012700	-0.50585900	0.17944300	-0.76562500	0.22143600	0.01538100	-0.82519500	0.09521500	0.15112300	-0.67431600	-0.18872100	-0.36132800	-0.49267600	-0.25903300	-0.58520500
